M48
;Layer_Color=9474304
;FILE_FORMAT=4:4
METRIC,LZ
;TYPE=PLATED
T1F00S00C0.7112
T2F00S00C0.7620
T3F00S00C0.9000
T4F00S00C1.5000
%
T01
X0101346Y00385826
X01119378Y0031496
X01220724Y00390906
X01232662Y0057912
X0123063Y0062103
X01266952Y00622046
X01271016Y00561594
X01251458Y00721106
X01235964Y00773938
X01179068Y0072136
Y0069596
Y0067056
Y0064516
X011049Y0073914
X01072564Y00739726
X0107315Y00774192
X00991362Y0073914
X0098044Y00660146
X0096012Y0065405
X00967486Y0062865
X00954786Y00609346
X00945388Y00584454
X00913638Y0054864
X00901192Y0052324
X0089027Y00497586
X0088392Y0047244
X00907796Y00448056
X00933196
X00958596
X00983996
X0105029Y00454152
X01051814Y0049149
X010668Y00491236
X01090676Y0049149
X0108053Y00430022
X01103122Y00406654
X01005332Y00653034
X00898652Y00704596
X00865886Y00774192
X00789178Y00759714
X00786892Y00796798
T02
X0103522Y00331376
X01080262Y003314
Y004064
X01035262
X0084963Y00472186
Y00497586
Y00522986
Y00548386
X0077343
Y00522986
Y00497586
Y00472186
T03
X01119632Y0033655
X01145032
X01170432
Y0036195
X01145032
X01119632
X01195832
X01221232
Y0033655
X01195832
X01205484Y0064516
X01230884
Y0067056
Y0069596
Y0072136
X01205484
Y0069596
Y0067056
X0117494Y00773798
X0114954
X0112414
X0109874
X0100584Y006858
X0098044
X0092583Y0067945
Y0065405
Y0062865
X0088265Y00635
Y006096
Y005842
Y006604
X00804164
Y006858
Y007112
Y00635
X0092583Y0070485
X00933196Y0041529
X00907796
X00958596
X00983996
T04
X00740918Y00745998
Y00796798
M30
