G04*
G04 #@! TF.GenerationSoftware,Altium Limited,Altium Designer,21.7.2 (23)*
G04*
G04 Layer_Physical_Order=1*
G04 Layer_Color=255*
%FSLAX44Y44*%
%MOMM*%
G71*
G04*
G04 #@! TF.SameCoordinates,241FE447-49CF-43B9-AE7C-A52FE71AB9A0*
G04*
G04*
G04 #@! TF.FilePolarity,Positive*
G04*
G01*
G75*
%ADD10R,0.7000X0.9000*%
%ADD11R,0.9000X0.8000*%
%ADD12R,6.0000X2.0000*%
%ADD13R,0.8000X0.9000*%
%ADD14O,1.5000X0.2500*%
%ADD15R,1.5000X0.2500*%
%ADD16R,0.2500X1.5000*%
%ADD17R,1.7500X0.9000*%
%ADD18R,1.7500X3.2000*%
%ADD19R,0.7000X0.7000*%
%ADD20C,0.7620*%
%ADD21C,0.1778*%
%ADD22C,1.5000*%
%ADD23R,1.5000X1.5000*%
%ADD24R,1.5000X1.5000*%
%ADD25C,1.5240*%
%ADD26C,3.0000*%
%ADD27C,1.2700*%
D10*
X1006482Y773798D02*
D03*
X991482D02*
D03*
X1123308Y406400D02*
D03*
X1138308D02*
D03*
X1080658Y454080D02*
D03*
X1065658D02*
D03*
X1188212Y579428D02*
D03*
X1203212D02*
D03*
X1188212Y561394D02*
D03*
X1203212D02*
D03*
D11*
X1231770Y460898D02*
D03*
Y446898D02*
D03*
X1141770Y446898D02*
D03*
Y460898D02*
D03*
X1091184Y522224D02*
D03*
Y508224D02*
D03*
X1029716Y513334D02*
D03*
Y527334D02*
D03*
X1012698Y527334D02*
D03*
Y513334D02*
D03*
X813824Y796798D02*
D03*
Y782798D02*
D03*
X837446Y782798D02*
D03*
Y796798D02*
D03*
D12*
X1231770Y499872D02*
D03*
X1141770D02*
D03*
D13*
X1080658Y472948D02*
D03*
X1066658D02*
D03*
X1052740Y527050D02*
D03*
X1066740D02*
D03*
Y511810D02*
D03*
X1052740D02*
D03*
X1072740Y702310D02*
D03*
X1058740D02*
D03*
Y684530D02*
D03*
X1072740D02*
D03*
X1104740Y684530D02*
D03*
X1090740D02*
D03*
X1090740Y702310D02*
D03*
X1104740D02*
D03*
D14*
X1043740Y632700D02*
D03*
D15*
Y628700D02*
D03*
Y624700D02*
D03*
Y620700D02*
D03*
Y616700D02*
D03*
Y612700D02*
D03*
Y608700D02*
D03*
Y604700D02*
D03*
Y600700D02*
D03*
Y596700D02*
D03*
Y592700D02*
D03*
Y588700D02*
D03*
Y584700D02*
D03*
Y580700D02*
D03*
Y576700D02*
D03*
Y572700D02*
D03*
X1133740D02*
D03*
Y576700D02*
D03*
Y580700D02*
D03*
Y584700D02*
D03*
Y588700D02*
D03*
Y592700D02*
D03*
Y596700D02*
D03*
Y600700D02*
D03*
Y604700D02*
D03*
Y608700D02*
D03*
Y612700D02*
D03*
Y616700D02*
D03*
Y620700D02*
D03*
Y624700D02*
D03*
Y628700D02*
D03*
Y632700D02*
D03*
D16*
X1058740Y557700D02*
D03*
X1062740D02*
D03*
X1066740D02*
D03*
X1070740D02*
D03*
X1074740D02*
D03*
X1078740D02*
D03*
X1082740D02*
D03*
X1086740D02*
D03*
X1090740D02*
D03*
X1094740D02*
D03*
X1098740D02*
D03*
X1102740D02*
D03*
X1106740D02*
D03*
X1110740D02*
D03*
X1114740D02*
D03*
X1118740D02*
D03*
Y647700D02*
D03*
X1114740D02*
D03*
X1110740D02*
D03*
X1106740D02*
D03*
X1102740D02*
D03*
X1098740D02*
D03*
X1094740D02*
D03*
X1090740D02*
D03*
X1086740D02*
D03*
X1082740D02*
D03*
X1078740D02*
D03*
X1074740D02*
D03*
X1070740D02*
D03*
X1066740D02*
D03*
X1062740D02*
D03*
X1058740D02*
D03*
D17*
X884936Y796798D02*
D03*
Y773798D02*
D03*
Y750798D02*
D03*
D18*
X947436Y773798D02*
D03*
D19*
X1058740D02*
D03*
X1044740D02*
D03*
D20*
X813134Y782608D02*
X813634D01*
X789178Y759714D02*
X790240D01*
X813134Y782608D01*
X813634D02*
X813824Y782798D01*
X837446D01*
X1120350Y313988D02*
X1123942D01*
X1125256Y312674D02*
X1262234D01*
X1308608Y359048D01*
X1119378Y314960D02*
X1120350Y313988D01*
X1123942D02*
X1125256Y312674D01*
X865886Y774192D02*
X866083Y773995D01*
X884739D02*
X884936Y773798D01*
X866083Y773995D02*
X884739D01*
X991362Y739140D02*
X991482Y739260D01*
Y773798D01*
X1266952Y622046D02*
X1308608Y580390D01*
Y359048D02*
Y580390D01*
X838136Y782608D02*
X869946Y750798D01*
X884936D01*
Y718312D02*
Y750798D01*
X1090676Y491490D02*
X1091648Y490518D01*
Y485692D02*
X1130442Y446898D01*
X1091648Y485692D02*
Y490518D01*
X1130442Y446898D02*
X1141770D01*
X1231770D01*
X1066740Y472948D02*
Y511810D01*
X1090676Y491490D02*
X1090930Y491744D01*
Y508034D01*
X1091120Y508224D02*
X1091184D01*
X1090930Y508034D02*
X1091120Y508224D01*
X1251458Y721106D02*
Y758444D01*
X1235964Y773938D02*
X1251458Y758444D01*
X884936Y718312D02*
X898652Y704596D01*
X837446Y782798D02*
X837946D01*
X1073150Y774192D02*
Y798830D01*
X1054354Y817626D02*
X1073150Y798830D01*
X905764Y817626D02*
X1054354D01*
X1203212Y579428D02*
X1203366Y579274D01*
X1232508D02*
X1232662Y579120D01*
X1203366Y579274D02*
X1232508D01*
X1270916Y561494D02*
X1271016Y561594D01*
X1203212Y561394D02*
X1203312Y561494D01*
X1270916D01*
X1104820Y702390D02*
Y739060D01*
X1104740Y702310D02*
X1104820Y702390D01*
Y739060D02*
X1104900Y739140D01*
X1072564Y702486D02*
Y739726D01*
Y702486D02*
X1072740Y702310D01*
X1073150Y762762D02*
Y774192D01*
Y762762D02*
X1090740Y745172D01*
Y702310D02*
Y745172D01*
X1012889Y513334D02*
X1013079Y513144D01*
Y386207D02*
Y513144D01*
Y386207D02*
X1013460Y385826D01*
X1012698Y513334D02*
X1012889D01*
X1006482Y773798D02*
X1044740D01*
X1044740Y773798D01*
X1090740Y684530D02*
Y702810D01*
X1072756Y773798D02*
X1073150Y774192D01*
X1058740Y773798D02*
X1072756D01*
X1058740Y702310D02*
X1058740Y702310D01*
Y773798D01*
X1072740Y684530D02*
Y702310D01*
X1205103Y406527D02*
X1220724Y390906D01*
X1138618Y406527D02*
X1205103D01*
X1058740Y684530D02*
Y702310D01*
X1104740Y684530D02*
Y702310D01*
X1141770Y460898D02*
Y499872D01*
X1231770Y460898D02*
Y499872D01*
X1052550Y511620D02*
X1052740Y511810D01*
X1051814Y491490D02*
X1052550Y492226D01*
X1052740Y511810D02*
Y527050D01*
X1052550Y492226D02*
Y511620D01*
X1050290Y454152D02*
X1065586D01*
X1065658Y454080D01*
X1029716Y489204D02*
Y513334D01*
Y489204D02*
X1045972Y472948D01*
X1012698Y527334D02*
X1012698Y527334D01*
X1029716D01*
X1012698Y513334D02*
X1012698Y513334D01*
X1029716D01*
X1045972Y472948D02*
X1066658D01*
X1080594Y430086D02*
Y454016D01*
X1080658Y454080D01*
X1080530Y430022D02*
X1080594Y430086D01*
X1080658Y454080D02*
Y472948D01*
X1066740Y511810D02*
Y527050D01*
X1123181Y406527D02*
X1123308Y406400D01*
X1103249Y406527D02*
X1123181D01*
X1103122Y406654D02*
X1103249Y406527D01*
X884936Y773798D02*
X947436D01*
X837446Y796798D02*
X884936D01*
X905764Y817626D01*
X947436Y773798D02*
X947436Y773798D01*
X991482D01*
X837446Y796798D02*
X837446Y796798D01*
X813824D02*
X837446D01*
X837446Y796798D01*
X786892Y796798D02*
X813824D01*
D21*
X890270Y497586D02*
X890651Y497967D01*
X899287D02*
X1002020Y600700D01*
X890651Y497967D02*
X899287D01*
X901192Y523240D02*
X911860D01*
X993320Y604700D01*
X913638Y548640D02*
X924814D01*
X984874Y608700D01*
X975436Y620700D02*
X1043740D01*
X967486Y628650D02*
X975436Y620700D01*
X1005332Y653034D02*
X1025666Y632700D01*
X1043740D01*
X1133798Y608642D02*
X1253548D01*
X1266952Y622046D01*
X1222274Y612674D02*
X1230630Y621030D01*
X1133766Y612674D02*
X1222274D01*
X1133740Y608700D02*
X1133798Y608642D01*
X1166368Y657860D02*
X1179068Y670560D01*
X1166368Y645160D02*
Y657860D01*
X1146269Y625061D02*
X1166368Y645160D01*
X1134101Y625061D02*
X1146269D01*
X1159262Y642626D02*
Y676154D01*
X1145697Y629061D02*
X1159262Y642626D01*
X1134101Y629061D02*
X1145697D01*
X1133740Y632700D02*
X1144258D01*
X1154684Y643126D01*
Y696976D01*
X1179068Y721360D01*
X1154608Y620700D02*
X1179068Y645160D01*
X1133740Y620700D02*
X1154608D01*
X1133740Y624700D02*
X1134101Y625061D01*
X1159262Y676154D02*
X1179068Y695960D01*
X1133740Y628700D02*
X1134101Y629061D01*
X945388Y584454D02*
X947420D01*
X975666Y612700D01*
X954786Y609346D02*
X962140Y616700D01*
X1043740D01*
X975666Y612700D02*
X1043740D01*
X984874Y608700D02*
X1043740D01*
X960120Y654050D02*
X989470Y624700D01*
X1043740D01*
X980440Y660146D02*
X1011886Y628700D01*
X1043740D01*
X1157906Y592700D02*
X1188212Y562394D01*
X1133740Y592700D02*
X1157906D01*
X1188212Y561394D02*
Y562394D01*
X1171940Y596700D02*
X1188212Y580428D01*
X1133740Y596700D02*
X1171940D01*
X1188212Y579428D02*
Y580428D01*
X1133740Y612700D02*
X1133766Y612674D01*
X1072740Y678024D02*
Y684530D01*
X1062740Y668024D02*
X1072740Y678024D01*
X1062740Y647700D02*
Y668024D01*
X1058740Y647700D02*
Y684530D01*
X1058740Y684530D02*
X1058740Y684530D01*
X1094740Y647700D02*
Y668020D01*
X1104740Y678020D02*
Y684530D01*
X1094740Y668020D02*
X1104740Y678020D01*
X1090740Y647700D02*
Y684530D01*
X1090740Y684530D01*
X1098740Y546164D02*
Y557700D01*
Y546164D02*
X1112774Y532130D01*
X1199512D01*
X1094740Y543814D02*
Y557700D01*
Y543814D02*
X1123663Y514891D01*
Y508983D02*
Y514891D01*
X1132774Y499872D02*
X1141770D01*
X1123663Y508983D02*
X1132774Y499872D01*
X1199512Y532130D02*
X1231770Y499872D01*
X1038128Y527334D02*
X1058738Y547944D01*
X1029716Y527334D02*
X1038128D01*
X1058738Y547944D02*
Y557698D01*
X1058740Y557700D01*
X1080658Y473202D02*
X1081091Y473635D01*
X1080725Y473635D02*
Y533699D01*
X1074740Y546150D02*
X1091184Y529706D01*
Y522224D02*
Y529706D01*
X1074740Y546150D02*
Y557700D01*
X1070740Y543684D02*
X1080725Y533699D01*
X1070740Y543684D02*
Y557700D01*
X1066740Y527050D02*
Y557700D01*
X1052740Y527050D02*
Y535850D01*
X1062740Y545850D02*
Y557700D01*
X1052740Y535850D02*
X1062740Y545850D01*
X993320Y604700D02*
X1043740D01*
X1002020Y600700D02*
X1043740D01*
X886460Y472440D02*
X1010720Y596700D01*
X1043740D01*
X883920Y472440D02*
X886460D01*
X1018150Y592700D02*
X1043740D01*
X907796Y448056D02*
Y482346D01*
X1018150Y592700D01*
X1027930Y584700D02*
X1043740D01*
X958596Y515366D02*
X1027930Y584700D01*
X958596Y448056D02*
Y515366D01*
X1023040Y588700D02*
X1043740D01*
X933196Y448056D02*
Y498856D01*
X1023040Y588700D01*
X983996Y448056D02*
Y530606D01*
X1034090Y580700D01*
X1043740D01*
D22*
X804164Y711200D02*
D03*
Y685800D02*
D03*
Y660400D02*
D03*
X1230884Y645160D02*
D03*
Y670560D02*
D03*
Y695960D02*
D03*
Y721360D02*
D03*
X1205484Y645160D02*
D03*
Y670560D02*
D03*
Y695960D02*
D03*
X933196Y415290D02*
D03*
X958596D02*
D03*
X983996D02*
D03*
X980440Y685800D02*
D03*
X1221232Y361950D02*
D03*
Y336550D02*
D03*
X1195832Y361950D02*
D03*
Y336550D02*
D03*
X1170432Y361950D02*
D03*
Y336550D02*
D03*
X1145032Y361950D02*
D03*
Y336550D02*
D03*
X1119632Y361950D02*
D03*
X925830Y628650D02*
D03*
Y654050D02*
D03*
Y679450D02*
D03*
X1098740Y773798D02*
D03*
X1124140D02*
D03*
X1149540D02*
D03*
X882650Y584200D02*
D03*
Y609600D02*
D03*
Y635000D02*
D03*
D23*
X804164D02*
D03*
X1205484Y721360D02*
D03*
X925830Y704850D02*
D03*
X882650Y660400D02*
D03*
D24*
X907796Y415290D02*
D03*
X1005840Y685800D02*
D03*
X1119632Y336550D02*
D03*
X1174940Y773798D02*
D03*
D25*
X773430Y472186D02*
D03*
Y497586D02*
D03*
Y522986D02*
D03*
Y548386D02*
D03*
X849630Y472186D02*
D03*
Y497586D02*
D03*
Y522986D02*
D03*
Y548386D02*
D03*
X1080262Y406400D02*
D03*
X1035262D02*
D03*
X1080262Y331400D02*
D03*
X1035220Y331376D02*
D03*
D26*
X740918Y745998D02*
D03*
Y796798D02*
D03*
D27*
X789178Y759714D02*
D03*
X865886Y774192D02*
D03*
X890270Y497586D02*
D03*
X901192Y523240D02*
D03*
X913638Y548640D02*
D03*
X967486Y628650D02*
D03*
X1005332Y653034D02*
D03*
X991362Y739140D02*
D03*
X1119378Y314960D02*
D03*
X1090676Y491490D02*
D03*
X1066800Y491236D02*
D03*
X1235964Y773938D02*
D03*
X1251458Y721106D02*
D03*
X1266952Y622046D02*
D03*
X1230630Y621030D02*
D03*
X1179068Y645160D02*
D03*
X898652Y704596D02*
D03*
X1232662Y579120D02*
D03*
X1271016Y561594D02*
D03*
X1072564Y739726D02*
D03*
X1104900Y739140D02*
D03*
X945388Y584454D02*
D03*
X954786Y609346D02*
D03*
X960120Y654050D02*
D03*
X980440Y660146D02*
D03*
X1013460Y385826D02*
D03*
X1073150Y774192D02*
D03*
X1179068Y670560D02*
D03*
Y695960D02*
D03*
Y721360D02*
D03*
X1220724Y390906D02*
D03*
X1051814Y491490D02*
D03*
X1050290Y454152D02*
D03*
X1080530Y430022D02*
D03*
X1103122Y406654D02*
D03*
X907796Y448056D02*
D03*
X883920Y472440D02*
D03*
X933196Y448056D02*
D03*
X958596D02*
D03*
X983996D02*
D03*
X786892Y796798D02*
D03*
M02*
