G04*
G04 #@! TF.GenerationSoftware,Altium Limited,Altium Designer,21.7.2 (23)*
G04*
G04 Layer_Physical_Order=2*
G04 Layer_Color=16711680*
%FSLAX44Y44*%
%MOMM*%
G71*
G04*
G04 #@! TF.SameCoordinates,241FE447-49CF-43B9-AE7C-A52FE71AB9A0*
G04*
G04*
G04 #@! TF.FilePolarity,Positive*
G04*
G01*
G75*
%ADD20C,0.7620*%
%ADD21C,0.1778*%
%ADD22C,1.5000*%
%ADD23R,1.5000X1.5000*%
%ADD24R,1.5000X1.5000*%
%ADD25C,1.5240*%
%ADD26C,3.0000*%
%ADD27C,1.2700*%
D20*
X752602Y711200D02*
X804164D01*
X740918Y722884D02*
Y745998D01*
Y722884D02*
X752602Y711200D01*
X740918Y745998D02*
X775462D01*
X789178Y759714D01*
X882650Y660400D02*
Y699770D01*
X865886Y716534D02*
X882650Y699770D01*
X865886Y716534D02*
Y774192D01*
X849630Y497586D02*
X890270D01*
X849757Y523113D02*
X901065D01*
X901192Y523240D01*
X849630Y522986D02*
X849757Y523113D01*
X913511Y548513D02*
X913638Y548640D01*
X849757Y548513D02*
X913511D01*
X849630Y548386D02*
X849757Y548513D01*
X925830Y628650D02*
X967486D01*
X1005586Y653288D02*
Y685546D01*
X1005840Y685800D01*
X1005332Y653034D02*
X1005586Y653288D01*
X1072271Y739433D02*
X1072564Y739726D01*
X991655Y739433D02*
X1072271D01*
X991362Y739140D02*
X991655Y739433D01*
X991108Y739394D02*
X991362Y739140D01*
X1072564Y739726D02*
X1072857Y739433D01*
X804164Y635000D02*
Y660400D01*
X882650D01*
X1119632Y361950D02*
X1186434Y428752D01*
X1243838D02*
X1282192Y467106D01*
X1186434Y428752D02*
X1243838D01*
X1258824Y415544D02*
X1297686Y454406D01*
X1198626Y415544D02*
X1258824D01*
X1145032Y361950D02*
X1198626Y415544D01*
X860044Y635000D02*
X882650D01*
X773430Y548386D02*
X860044Y635000D01*
X1119505Y336423D02*
X1119632Y336550D01*
X1037282Y331376D02*
X1064874Y303784D01*
X1126998D01*
X1119505Y315087D02*
Y336423D01*
X1119378Y314960D02*
X1119505Y315087D01*
X1126998Y303784D02*
X1145032Y321818D01*
Y336550D01*
X1066927Y491363D02*
X1090549D01*
X1066800Y491236D02*
X1066927Y491363D01*
X1090549D02*
X1090676Y491490D01*
X1297686Y454406D02*
Y535940D01*
X1282192Y467106D02*
Y529590D01*
X1235894Y773868D02*
X1235964Y773938D01*
X1174940Y773798D02*
X1175010Y773868D01*
X1235894D01*
X1231011Y721233D02*
X1251331D01*
X1251458Y721106D01*
X1230884Y721360D02*
X1231011Y721233D01*
X1250696Y739394D02*
X1266952Y723138D01*
X1105154Y739394D02*
X1250696D01*
X1266952Y622046D02*
Y723138D01*
X1230630Y621030D02*
X1232005D01*
X1236218Y618490D02*
X1318006Y536702D01*
Y433324D02*
Y536702D01*
X1232005Y621030D02*
X1234545Y618490D01*
X1236218D01*
X1230630Y621030D02*
X1230757Y621157D01*
Y644525D01*
X1230884Y644652D01*
Y670560D01*
X1221232Y336550D02*
X1318006Y433324D01*
X1271016Y561594D02*
X1272032D01*
X1232662Y579120D02*
X1282192Y529590D01*
X1272032Y561594D02*
X1297686Y535940D01*
X1179068Y645160D02*
X1205484D01*
X925703Y704723D02*
X925830Y704850D01*
X898779Y704723D02*
X925703D01*
X898652Y704596D02*
X898779Y704723D01*
X1072857Y739433D02*
X1104607D01*
X1104900Y739140D01*
X1105154Y739394D01*
X882777Y584327D02*
X945261D01*
X882650Y609600D02*
X954532D01*
X925830Y678815D02*
Y679450D01*
X882650Y635000D02*
Y635635D01*
X925830Y678815D01*
Y654050D02*
X960120D01*
X980440Y660146D02*
Y685800D01*
X804164D02*
Y711200D01*
X773430Y522986D02*
Y548386D01*
X1035220Y331376D02*
X1037282D01*
X773430Y472186D02*
X914240Y331376D01*
X1035220D01*
Y364066D01*
X1013460Y385826D02*
X1035220Y364066D01*
X1073347Y773995D02*
X1098543D01*
X1073150Y774192D02*
X1073347Y773995D01*
X1098543D02*
X1098740Y773798D01*
X1179068Y670560D02*
X1205484D01*
X1179068Y695960D02*
X1205484D01*
X1179068Y721360D02*
X1205484D01*
X1220978Y362204D02*
X1221232Y361950D01*
X1220724Y390906D02*
X1220978Y390652D01*
Y362204D02*
Y390652D01*
X1149540Y773798D02*
X1174940D01*
X1124140D02*
X1149540D01*
X1098740D02*
X1124140D01*
X1230884Y670560D02*
Y695960D01*
Y721360D01*
X1172429Y336550D02*
X1187669Y321310D01*
X1203995D02*
X1219235Y336550D01*
X1187669Y321310D02*
X1203995D01*
X1145032Y336550D02*
X1170432D01*
X1172429D01*
X1219235D02*
X1221232D01*
X1050290Y454152D02*
X1051052Y454914D01*
Y490728D01*
X1051814Y491490D01*
X1050290Y405892D02*
Y454152D01*
Y405892D02*
X1119632Y336550D01*
X1080262Y406400D02*
Y430022D01*
X1080389Y406527D02*
X1102995D01*
X1103122Y406654D01*
X933196Y415290D02*
Y448056D01*
X958596Y415290D02*
Y448056D01*
X983996Y415290D02*
Y448056D01*
X907796Y415290D02*
Y448056D01*
X883793Y472313D02*
X883920Y472440D01*
X849757Y472313D02*
X883793D01*
X849630Y472186D02*
X849757Y472313D01*
X773430Y472186D02*
Y497586D01*
Y522986D01*
X740918Y796798D02*
X786892D01*
D21*
X882650Y584200D02*
X882777Y584327D01*
X945261D02*
X945388Y584454D01*
X954532Y609600D02*
X954786Y609346D01*
D22*
X804164Y711200D02*
D03*
Y685800D02*
D03*
Y660400D02*
D03*
X1230884Y645160D02*
D03*
Y670560D02*
D03*
Y695960D02*
D03*
Y721360D02*
D03*
X1205484Y645160D02*
D03*
Y670560D02*
D03*
Y695960D02*
D03*
X933196Y415290D02*
D03*
X958596D02*
D03*
X983996D02*
D03*
X980440Y685800D02*
D03*
X1221232Y361950D02*
D03*
Y336550D02*
D03*
X1195832Y361950D02*
D03*
Y336550D02*
D03*
X1170432Y361950D02*
D03*
Y336550D02*
D03*
X1145032Y361950D02*
D03*
Y336550D02*
D03*
X1119632Y361950D02*
D03*
X925830Y628650D02*
D03*
Y654050D02*
D03*
Y679450D02*
D03*
X1098740Y773798D02*
D03*
X1124140D02*
D03*
X1149540D02*
D03*
X882650Y584200D02*
D03*
Y609600D02*
D03*
Y635000D02*
D03*
D23*
X804164D02*
D03*
X1205484Y721360D02*
D03*
X925830Y704850D02*
D03*
X882650Y660400D02*
D03*
D24*
X907796Y415290D02*
D03*
X1005840Y685800D02*
D03*
X1119632Y336550D02*
D03*
X1174940Y773798D02*
D03*
D25*
X773430Y472186D02*
D03*
Y497586D02*
D03*
Y522986D02*
D03*
Y548386D02*
D03*
X849630Y472186D02*
D03*
Y497586D02*
D03*
Y522986D02*
D03*
Y548386D02*
D03*
X1080262Y406400D02*
D03*
X1035262D02*
D03*
X1080262Y331400D02*
D03*
X1035220Y331376D02*
D03*
D26*
X740918Y745998D02*
D03*
Y796798D02*
D03*
D27*
X789178Y759714D02*
D03*
X865886Y774192D02*
D03*
X890270Y497586D02*
D03*
X901192Y523240D02*
D03*
X913638Y548640D02*
D03*
X967486Y628650D02*
D03*
X1005332Y653034D02*
D03*
X991362Y739140D02*
D03*
X1119378Y314960D02*
D03*
X1090676Y491490D02*
D03*
X1066800Y491236D02*
D03*
X1235964Y773938D02*
D03*
X1251458Y721106D02*
D03*
X1266952Y622046D02*
D03*
X1230630Y621030D02*
D03*
X1179068Y645160D02*
D03*
X898652Y704596D02*
D03*
X1232662Y579120D02*
D03*
X1271016Y561594D02*
D03*
X1072564Y739726D02*
D03*
X1104900Y739140D02*
D03*
X945388Y584454D02*
D03*
X954786Y609346D02*
D03*
X960120Y654050D02*
D03*
X980440Y660146D02*
D03*
X1013460Y385826D02*
D03*
X1073150Y774192D02*
D03*
X1179068Y670560D02*
D03*
Y695960D02*
D03*
Y721360D02*
D03*
X1220724Y390906D02*
D03*
X1051814Y491490D02*
D03*
X1050290Y454152D02*
D03*
X1080530Y430022D02*
D03*
X1103122Y406654D02*
D03*
X907796Y448056D02*
D03*
X883920Y472440D02*
D03*
X933196Y448056D02*
D03*
X958596D02*
D03*
X983996D02*
D03*
X786892Y796798D02*
D03*
M02*
